<?xml version="1.0" encoding="UTF-8" standalone="no"?>
<svg
   xmlns:dc="http://purl.org/dc/elements/1.1/"
   xmlns:cc="http://creativecommons.org/ns#"
   xmlns:rdf="http://www.w3.org/1999/02/22-rdf-syntax-ns#"
   xmlns:svg="http://www.w3.org/2000/svg"
   xmlns="http://www.w3.org/2000/svg"
   xmlns:sodipodi="http://sodipodi.sourceforge.net/DTD/sodipodi-0.dtd"
   xmlns:inkscape="http://www.inkscape.org/namespaces/inkscape"
   viewBox="0 0 512 512"
   id="svg3108"
   version="1.1"
   inkscape:version="0.48.4 r9939"
   width="100%"
   height="100%"
   sodipodi:docname="icon.svg"
   inkscape:export-filename="G:\downloads\jp-markdown.png"
   inkscape:export-xdpi="90"
   inkscape:export-ydpi="90">
  <metadata
     id="metadata3156">
    <rdf:RDF>
      <cc:Work
         rdf:about="">
        <dc:format>image/svg+xml</dc:format>
        <dc:type
           rdf:resource="http://purl.org/dc/dcmitype/StillImage" />
        <dc:title />
      </cc:Work>
    </rdf:RDF>
  </metadata>
  <defs
     id="defs3154" />
  <sodipodi:namedview
     pagecolor="#ffffff"
     bordercolor="#666666"
     borderopacity="1"
     objecttolerance="10"
     gridtolerance="10"
     guidetolerance="10"
     inkscape:pageopacity="0"
     inkscape:pageshadow="2"
     inkscape:window-width="1366"
     inkscape:window-height="705"
     id="namedview3152"
     showgrid="false"
     showguides="true"
     inkscape:guide-bbox="true"
     inkscape:zoom="0.70710678"
     inkscape:cx="5.706479"
     inkscape:cy="253.02758"
     inkscape:window-x="-8"
     inkscape:window-y="-8"
     inkscape:window-maximized="1"
     inkscape:current-layer="g3112" />
  <g
     transform="matrix(16.184785,-9.34429,9.34429,16.184785,-32096.072,-31639.69)"
     id="g3112">
    <path
       style="fill:#4a9ac6;fill-opacity:1;stroke:none"
       d="m 658.01149,2335.1274 c -1.80358,-1.0102 -3.47937,-1.18 -4.92512,-0.5458 l 1.01599,3.7917 c 1.11926,0.085 2.08794,0.5793 2.6196,1.6631 1.13922,-0.7428 2.10526,-2.0344 2.83211,-3.862 -0.52269,-0.4155 -1.03758,-0.7641 -1.54258,-1.047 z m -5.52815,-0.5715 -9.95077,2.6675 1.74656,6.5228 3.06455,-0.8199 c -0.0954,-2.0563 3.33126,-4.432 6.16139,-4.5618 l -1.02173,-3.8086 z m 7.41946,7.7031 c -0.9789,-0.5444 -1.92091,-0.8404 -2.80802,-0.8952 0.11868,1.2501 -0.47897,2.1942 -1.42925,2.8434 l 0.98968,3.6935 c 2.01053,-0.2269 3.6948,-1.7688 4.81335,-4.5813 -0.53101,-0.4222 -1.053,-0.7753 -1.56576,-1.0604 z m -5.12261,-2.7722 c -2.28893,-1.2196 -6.80193,1.4621 -6.25459,3.5059 0.67397,2.5154 8.46998,2.0319 7.39476,-1.9826 -0.2016,-0.7527 -0.61196,-1.2418 -1.14017,-1.5233 z m 0.37107,5.0259 c -2.55803,1.3259 -6.81089,0.9494 -7.66083,-0.961 l -3.04483,0.8158 1.74801,6.5237 9.95222,-2.6667 -0.99457,-3.7118 z m -12.71861,-5.4374 c -1.4071,-0.7137 -2.73467,-0.9232 -3.93518,-0.6385 l 1.68191,6.277 c 1.18309,-0.3538 2.23129,-1.1903 3.09483,-2.4977 l -0.84011,-3.14 -10e-4,-8e-4 z m -4.63872,0.1119 -5.93806,1.5899 -0.76584,1.3264 6.98422,-1.8702 -0.28032,-1.0461 z m 0.56064,2.0923 -8.03039,2.1505 -0.76584,1.3265 9.07654,-2.4308 -0.28031,-1.0462 z m 5.99401,4.9416 c -1.40767,-0.7146 -2.73553,-0.9241 -3.93662,-0.6393 l 1.68046,6.2761 c 1.1832,-0.3539 2.23202,-1.1918 3.09567,-2.4992 l -0.83951,-3.1376 z m -5.43483,-2.8501 -10.12125,2.712 -0.76584,1.3264 11.16741,-2.9923 -0.28032,-1.0461 z m 0.79405,2.9588 -10.91013,2.9246 1.32647,0.7659 9.86398,-2.6443 -0.28032,-1.0462 z m 0.56064,2.0924 -8.81927,2.3631 1.32648,0.7658 7.77311,-2.0828 -0.28032,-1.0461 z m 0.56063,2.0923 -6.72694,1.8025 1.32648,0.7658 5.68078,-1.5222 -0.28032,-1.0461 z"
       id="path3136"
       inkscape:connector-curvature="0" />
    <g
       id="g4164"
       transform="matrix(0.0350761,0.0202512,-0.0202512,0.0350761,645.9378,2352.2372)">
      <rect
         id="rect4154"
         ry="10"
         y="5"
         x="5"
         height="118"
         width="198"
         style="fill:none;stroke:#4a9ac6;stroke-width:10;stroke-opacity:1" />
      <path
         id="path4156"
         d="M 30,98 V 30 H 50 L 70,55 90,30 h 20 V 98 H 90 V 59 L 70,84 50,59 v 39 z m 125,0 -30,-33 h 20 V 30 h 20 v 35 h 20 z"
         inkscape:connector-curvature="0"
         style="fill:#4a9ac6;fill-opacity:1" />
    </g>
  </g>
</svg>
